<svg width="20" height="22" viewBox="0 0 21 22" fill="none" xmlns="http://www.w3.org/2000/svg">
<g id="Icon" clip-path="url(#clip0_1578_21732)">
<path id="Vector" d="M14.3 11.4801C14.2867 11.5067 14.2733 11.5534 14.26 11.6201L14.24 11.6801C14.2267 11.8134 14.2633 11.9267 14.35 12.0201C14.4367 12.1134 14.5433 12.1667 14.67 12.1801C14.7967 12.1934 14.91 12.1567 15.01 12.0701C15.11 11.9834 15.1667 11.8801 15.18 11.7601C15.18 11.6801 15.1867 11.6067 15.2 11.5401V11.3201C15.2 10.7734 15.1067 10.2334 14.92 9.70007C14.6933 9.0734 14.32 8.4734 13.8 7.90007C13.2 7.30007 12.4733 6.88007 11.62 6.64007C11.1933 6.5334 10.7867 6.48007 10.4 6.48007C10.2133 6.48007 10.0667 6.48673 9.96 6.50007L9.56 6.56007C9.42667 6.5734 9.32333 6.63673 9.25 6.75007C9.17667 6.8634 9.15333 6.98007 9.18 7.10007C9.20667 7.22007 9.27333 7.31673 9.38 7.39007C9.48667 7.4634 9.60333 7.48673 9.73 7.46007C9.85667 7.4334 9.96 7.42007 10.04 7.42007L10.4 7.40007C10.92 7.40007 11.42 7.5034 11.9 7.71007C12.38 7.91673 12.8 8.19673 13.16 8.55007C13.52 8.9034 13.7967 9.3134 13.99 9.78007C14.1833 10.2467 14.2867 10.7467 14.3 11.2801V11.4801ZM16.86 11.9201C16.8467 12.0401 16.8833 12.1501 16.97 12.2501C17.0567 12.3501 17.1633 12.4067 17.29 12.4201C17.4167 12.4334 17.53 12.3967 17.63 12.3101C17.73 12.2234 17.7867 12.1134 17.8 11.9801C17.8133 11.8467 17.82 11.6334 17.82 11.3401C17.82 10.9801 17.7867 10.5667 17.72 10.1001C17.5867 9.34007 17.3433 8.61673 16.99 7.93007C16.6367 7.2434 16.1867 6.62673 15.64 6.08007C15.0267 5.46673 14.32 4.97007 13.52 4.59007C12.72 4.21007 11.8733 3.98673 10.98 3.92007C10.8467 3.90673 10.64 3.90007 10.36 3.90007C10.08 3.90007 9.87333 3.90673 9.74 3.92007C9.44667 3.94673 9.23333 3.97007 9.1 3.99007C8.96667 4.01007 8.86333 4.07673 8.79 4.19007C8.71667 4.3034 8.69 4.42007 8.71 4.54007C8.73 4.66007 8.79667 4.75673 8.91 4.83007C9.02333 4.9034 9.13333 4.92673 9.24 4.90007L9.82 4.82007C9.94 4.80673 10.1267 4.80007 10.38 4.80007C11.0067 4.80007 11.6333 4.8934 12.26 5.08007C13.3133 5.38673 14.2267 5.92673 15 6.70007C15.6267 7.32673 16.1133 8.06007 16.46 8.90007C16.7667 9.7134 16.92 10.5201 16.92 11.3201V11.5001C16.88 11.6601 16.86 11.8001 16.86 11.9201ZM17.52 4.22007C16.5867 3.2734 15.5133 2.54673 14.3 2.04007C13.0467 1.50673 11.7333 1.24007 10.36 1.24007C10.1733 1.24007 9.9 1.2534 9.54 1.28007H9.48C9.2 1.2934 8.90667 1.3334 8.6 1.40007C8.48 1.42673 8.38333 1.49007 8.31 1.59007C8.23667 1.69007 8.21 1.8034 8.23 1.93007C8.25 2.05673 8.31333 2.15673 8.42 2.23007C8.52667 2.3034 8.64 2.32673 8.76 2.30007L9.14 2.24007C9.32667 2.2134 9.46667 2.20007 9.56 2.20007C9.90667 2.1734 10.1733 2.16007 10.36 2.16007C11.6 2.16007 12.7867 2.40007 13.92 2.88007C15.0267 3.34674 16 4.00007 16.84 4.84007C17.68 5.68007 18.3333 6.64673 18.8 7.74007C19.28 8.8734 19.52 10.0667 19.52 11.3201V11.7601L19.5 12.1201C19.4867 12.2534 19.5233 12.3701 19.61 12.4701C19.6967 12.5701 19.8033 12.6267 19.93 12.6401C20.0567 12.6534 20.17 12.6167 20.27 12.5301C20.37 12.4434 20.4267 12.3334 20.44 12.2001C20.4667 11.8267 20.48 11.5401 20.48 11.3401C20.48 9.96673 20.22 8.66007 19.7 7.42007C19.18 6.20673 18.4533 5.14007 17.52 4.22007ZM19.76 16.0001L16.32 14.1401C16 13.9667 15.75 13.8734 15.57 13.8601C15.39 13.8467 15.2133 13.9067 15.04 14.0401C14.9333 14.1334 14.7333 14.3401 14.44 14.6601L13.76 15.4201C13.52 15.6867 13.3267 15.8734 13.18 15.9801C12.9267 16.1667 12.6867 16.2334 12.46 16.1801C12.0467 16.0867 11.5067 15.8334 10.84 15.4201C10.2533 15.0601 9.66 14.6401 9.06 14.1601C8.5 13.7067 8.07333 13.3201 7.78 13.0001C7.42 12.6134 7.02667 12.1201 6.6 11.5201C6.01333 10.7067 5.71333 10.1601 5.7 9.88007C5.7 9.70673 5.76667 9.52673 5.9 9.34007C5.98 9.22007 6.14 9.04673 6.38 8.82007C6.63333 8.56673 6.81333 8.36673 6.92 8.22007C7.10667 7.96673 7.22667 7.7134 7.28 7.46007C7.33333 7.14007 7.29333 6.80007 7.16 6.44007L5.64 3.00007C5.30667 2.22673 4.82 1.8734 4.18 1.94007C3.63333 2.00673 3.04 2.38007 2.4 3.06007C1.81333 3.68673 1.33333 4.4134 0.960001 5.24007C0.573334 6.10673 0.420001 6.84007 0.500001 7.44007C0.673334 8.62673 1.2 9.94673 2.08 11.4001C2.93333 12.8001 4.00667 14.1534 5.3 15.4601C6.63333 16.7934 8.03333 17.9067 9.5 18.8001C11.0733 19.7601 12.56 20.3667 13.96 20.6201C15.5067 20.9001 16.8467 20.7334 17.98 20.1201C18.4333 19.8667 18.88 19.4601 19.32 18.9001C19.7733 18.3134 20.06 17.7667 20.18 17.2601C20.3133 16.6734 20.1733 16.2534 19.76 16.0001Z" fill="#1C2045"/>
</g>
<defs>
<clipPath id="clip0_1578_21732">
<rect width="20" height="22" fill="white" transform="matrix(1 0 0 -1 0.5 22)"/>
</clipPath>
</defs>
</svg>
