<svg xmlns="http://www.w3.org/2000/svg" width="24" height="24" viewBox="0 0 24 24" fill="none">
    <path
        d="M14.2222 10.8C14.2222 11.4365 13.9881 12.047 13.5713 12.4971C13.1546 12.9471 12.5894 13.2 12 13.2C11.4106 13.2 10.8454 12.9471 10.4287 12.4971C10.0119 12.047 9.77778 11.4365 9.77778 10.8M7 8.4L8.66667 6H15.3333L17 8.4M7 8.4V16.8C7 17.1183 7.11706 17.4235 7.32544 17.6485C7.53381 17.8736 7.81643 18 8.11111 18H15.8889C16.1836 18 16.4662 17.8736 16.6746 17.6485C16.8829 17.4235 17 17.1183 17 16.8V8.4M7 8.4H17"
        stroke="#958FED" stroke-width="2" stroke-linecap="round" stroke-linejoin="round" />
</svg>