<svg width="21" height="22" viewBox="0 0 21 21" fill="none" xmlns="http://www.w3.org/2000/svg">
<path d="M7.375 9.03711C7.02344 9.03711 6.75 8.76367 6.75 8.41211V7.78711C6.75 7.47461 7.02344 7.16211 7.375 7.16211H13.625C13.9375 7.16211 14.25 7.47461 14.25 7.78711V8.41211C14.25 8.76367 13.9375 9.03711 13.625 9.03711H7.375ZM6.75 12.1621V11.5371C6.75 11.2246 7.02344 10.9121 7.375 10.9121H13.625C13.9375 10.9121 14.25 11.2246 14.25 11.5371V12.1621C14.25 12.5137 13.9375 12.7871 13.625 12.7871H7.375C7.02344 12.7871 6.75 12.5137 6.75 12.1621ZM10.5 16.9277C11.125 16.9277 11.75 16.7324 12.2969 16.3027L20.5 10.4043V18.7246C20.5 19.7793 19.6406 20.5996 18.625 20.5996H2.375C1.32031 20.5996 0.5 19.7793 0.5 18.7246V10.4043L8.66406 16.3027C9.21094 16.7324 9.83594 16.9277 10.5 16.9277ZM19.7578 6.9668C20.2266 7.35742 20.5 7.86523 20.5 8.45117V8.88086L16.75 11.5762V4.34961H4.25V11.5762L0.5 8.88086V8.45117C0.5 7.86523 0.773438 7.31836 1.20312 6.9668C1.55469 6.73242 1.86719 6.45898 2.375 6.10742V4.34961C2.375 3.33398 3.19531 2.47461 4.25 2.47461H7.25781C7.375 2.39648 7.49219 2.31836 7.60938 2.24023C8.27344 1.77148 9.5625 0.599609 10.5 0.599609C11.3984 0.599609 12.6875 1.77148 13.3516 2.24023C13.4688 2.31836 13.5859 2.39648 13.7031 2.47461H16.75C17.7656 2.47461 18.625 3.33398 18.625 4.34961V6.10742C19.0938 6.45898 19.4062 6.73242 19.7578 6.9668Z" fill="#1C2045"/>
</svg>
