<svg width="20" height="22" viewBox="0 0 17 20" fill="none" xmlns="http://www.w3.org/2000/svg">
<path id="Vector" d="M16.62 8.12C16.62 6.65333 16.2533 5.28667 15.52 4.02C14.8 2.79333 13.8267 1.82 12.6 1.1C11.3333 0.366667 9.96667 0 8.5 0C7.03333 0 5.66667 0.366667 4.4 1.1C3.17333 1.82 2.2 2.79333 1.48 4.02C0.746668 5.28667 0.380001 6.65333 0.380001 8.12C0.380001 9.4 0.666668 10.6133 1.24 11.76C1.78667 12.8667 2.55333 13.8 3.54 14.56L8.58 20L13.56 14.48C14.5067 13.7067 15.2467 12.78 15.78 11.7C16.34 10.58 16.62 9.38667 16.62 8.12ZM8.52 5.76C8.94667 5.76 9.34 5.86667 9.7 6.08C10.06 6.29333 10.3467 6.58 10.56 6.94C10.7733 7.3 10.88 7.69333 10.88 8.12C10.88 8.54667 10.7733 8.94333 10.56 9.31C10.3467 9.67667 10.06 9.96667 9.7 10.18C9.34 10.3933 8.94667 10.5 8.52 10.5C8.09333 10.5 7.7 10.3933 7.34 10.18C6.98 9.96667 6.69333 9.67667 6.48 9.31C6.26667 8.94333 6.16 8.54667 6.16 8.12C6.16 7.69333 6.26667 7.29667 6.48 6.93C6.69333 6.56333 6.98 6.27667 7.34 6.07C7.7 5.86333 8.09333 5.76 8.52 5.76Z" fill="#1C2045"/>
</svg>
